<svg xmlns="http://www.w3.org/2000/svg" viewBox="0 0 913 1280" preserveAspectRatio="xMidYMid meet"><g transform="translate(0,1280) scale(0.1,-0.1)" fill="currentColor"><path d="M4741 12785 c-133 -30 -429 -193 -605 -333 -377 -301 -660 -739 -784 -1217 -52 -201 -66 -316 -66 -545 0 -256 24 -409 85 -558 22 -54 43 -104 46 -112 4 -8 -36 26 -88 75 -394 377 -819 636 -1245 760 -49 14 -152 37 -229 52 -123 22 -157 25 -280 20 -337 -14 -622 -142 -871 -391 -191 -192 -298 -388 -339 -625 -19 -106 -19 -186 0 -292 42 -241 166 -460 385 -679 411 -413 910 -659 1505 -745 150 -22 406 -35 545 -28 63 3 113 3 110 1 -3 -3 -88 -41 -190 -84 -458 -193 -738 -365 -925 -566 -480 -516 -671 -1203 -499 -1795 89 -308 340 -583 675 -742 119 -56 166 -73 299 -106 160 -39 253 -48 436 -42 174 6 255 19 399 64 330 103 744 423 1020 788 233 309 415 699 483 1036 10 48 21 91 24 94 22 22 29 -833 9 -1090 -34 -429 -80 -706 -236 -1400 -231 -1026 -279 -1400 -279 -2165 0 -398 6 -534 40 -930 26 -300 99 -895 121 -980 3 -14 3 -22 -1 -19 -3 3 -22 64 -41 135 -106 387 -296 877 -490 1264 -363 726 -792 1266 -1345 1691 -485 374 -1099 628 -1745 723 -169 25 -414 46 -542 46 l-123 0 0 -129 c0 -550 122 -1058 358 -1486 129 -235 263 -408 491 -635 202 -202 341 -315 581 -475 438 -291 779 -456 1830 -890 551 -227 692 -289 963 -419 l118 -57 57 27 c204 96 1262 626 1375 688 327 181 606 359 830 529 725 552 1108 1198 1177 1987 20 228 10 500 -26 755 -20 147 -74 418 -85 429 -9 11 -228 -30 -451 -85 -748 -182 -1273 -446 -1691 -848 -473 -457 -739 -1022 -916 -1946 -22 -116 -63 -349 -91 -520 -78 -476 -147 -844 -160 -858 -24 -27 -24 1363 0 1768 53 928 116 1417 320 2525 155 837 175 1000 175 1410 0 188 -5 330 -13 390 -21 148 -51 316 -78 424 -13 55 -23 101 -21 103 2 1 35 -48 74 -110 376 -595 884 -1063 1362 -1252 393 -155 744 -135 1079 62 424 250 756 804 779 1303 20 453 -236 872 -782 1280 -146 109 -215 150 -316 190 l-70 27 98 7 c144 11 223 27 473 95 474 131 690 205 911 317 431 216 656 459 744 802 82 318 11 631 -192 854 -230 252 -495 409 -838 498 -179 46 -319 63 -530 63 -210 1 -331 -11 -541 -54 -480 -98 -881 -306 -1222 -633 l-85 -81 45 90 c124 246 218 518 267 765 87 440 -63 941 -401 1345 -125 149 -290 296 -413 368 -127 74 -308 103 -444 72z"/></g></svg>