<svg xmlns="http://www.w3.org/2000/svg" viewBox="0 0 560 1000" preserveAspectRatio="xMidYMid meet">
  <g transform="translate(0, 800) scale(1, -1)" fill="currentColor">
    <path d="M25 508q0 101 72 169t175 68q131 0 197 -83.5t66 -215.5q0 -191 -108 -319t-295 -128h-6q-38 0 -54 10q-28 17 -28 79q0 70 38 82q17 6 58 6t79.5 14t59.5 34q43 41 55 74l5 14q-38 -17 -75 -17q-98 0 -168.5 65.5t-70.5 147.5zM276 581q-77 0 -77 -67q0 -23 17.5 -43t56.5 -20t59.5 18.5t20.5 37t-2.5 29t-10.5 22.5q-15 23 -64 23z"/>
  </g>
</svg>
