<svg xmlns="http://www.w3.org/2000/svg" viewBox="0 0 560 1000" preserveAspectRatio="xMidYMid meet">
  <g transform="translate(0, 800) scale(1, -1)" fill="currentColor">
    <path d="M535 224q0 -101 -72.5 -169t-175.5 -68q-130 0 -196 83.5t-66 215.5q0 191 108.5 319t296.5 128q38 0 55.5 -9.5t23.5 -28.5t6 -48t-5 -46t-12 -26t-20 -13q-17 -6 -58 -6t-79.5 -14t-60.5 -34q-44 -41 -54 -74l-5 -14q37 17 74 17q99 0 169.5 -65.5t70.5 -147.5zM283 151q77 0 77 67q0 23 -17.5 43t-56 20t-59 -18.5t-20.5 -37.5t2.5 -29t9.5 -22q14 -23 64 -23z"/>
  </g>
</svg>
