<svg xmlns="http://www.w3.org/2000/svg" viewBox="0 0 608 1000" preserveAspectRatio="xMidYMid meet">
  <g transform="translate(0, 800) scale(1, -1)" fill="currentColor">
    <path d="M496 674q71 -70 71 -157.5t-78 -126.5v-7q10 -5 29.5 -21.5t31.5 -32.5q33 -42 33 -96q0 -107 -80 -176.5t-201 -69.5q-120 0 -200 70q-30 27 -53 71q-8 16 -11 26l-2 10q-11 33 -11 54q0 58 98 58q40 0 53 -10q17 -13 30 -52q10 -32 55 -48q19 -6 42 -6q53 0 78 21.5t25 48.5t-24.5 47.5t-58 20.5t-45.5 2t-26 10q-27 13 -27 77q0 70 37 83q17 5 52 5q76 0 76 39q0 21 -20 40t-55.5 19t-56.5 -12t-26 -24l-6 -12q-23 -50 -66 -50q-25 0 -55 18q-50 29 -50 67q0 16 23 68q4 9 22 31.5t41.5 39.5t66 31t94.5 14q123 0 194 -70z"/>
  </g>
</svg>
