<svg xmlns="http://www.w3.org/2000/svg" viewBox="0 0 592 1000" preserveAspectRatio="xMidYMid meet">
  <g transform="translate(0, 800) scale(1, -1)" fill="currentColor">
    <path d="M412.5 728.5q19.5 5.5 51 5.5t50.5 -6.5t27 -21t9.5 -26.5t1.5 -35v-556q0 -39 -9.5 -57.5t-29 -24.5t-48.5 -6t-46 5t-26 12t-13 20q-6 17 -6 52v122h-271q-70 0 -83 38q-5 16 -5 43t3 40l83 335q6 23 10.5 35t18 23t34.5 11t46 -7q70 -19 70 -64q0 -16 -7 -42q-1 -2 -1 -3l-61 -244h163v273q0 23 1.5 34t9.5 25t27.5 19.5z"/>
  </g>
</svg>
