<svg xmlns="http://www.w3.org/2000/svg" viewBox="0 0 609 1000" preserveAspectRatio="xMidYMid meet">
  <g transform="translate(0, 800) scale(1, -1)" fill="currentColor">
    <path d="M506 176q41 0 58.5 -9.5t23.5 -29t6 -51t-6.5 -50.5t-21.5 -26q-22 -12 -62 -12h-391q-36 0 -62 27t-26 63q0 54 37.5 99.5t90.5 78t106 64t90.5 71.5t37.5 85q0 9 -7 25.5t-15.5 27t-26.5 19.5t-50 9t-55.5 -23.5t-26.5 -46.5l-4 -23v-6q0 -22 -1.5 -33t-9.5 -25q-15 -24 -78 -24q-70 0 -83 38q-5 16 -5 51q0 104 74.5 186.5t195 82.5t195.5 -83.5t75 -190.5q0 -57 -25 -108t-60 -82q-74 -66 -132 -89l-25 -10v-5h183z"/>
  </g>
</svg>
