<svg xmlns="http://www.w3.org/2000/svg" viewBox="0 0 530 1000" preserveAspectRatio="xMidYMid meet">
  <g transform="translate(0, 800) scale(1, -1)" fill="currentColor">
    <path d="M156 735l152 -1h94q24 0 35 -1.5t26 -9.5q27 -14 27 -80q0 -60 -25 -73q-14 -8 -24.5 -9.5t-32.5 -1.5h-175q-2 -12 -10 -76q11 2 35 2q95 0 171 -71.5t76 -175t-72 -178t-179 -74.5q-93 0 -168 47q-17 11 -25 19l-8 7q-38 33 -38 60t37 65q30 33 58 33t67 -32q18 -21 62.5 -21t66 19t21.5 52.5t-23.5 53t-53.5 19.5t-48 -18q-27 -23 -54.5 -23t-63 19t-46.5 30.5t-11 24.5t20 161t21 154t7 21t14.5 27t26 21.5t40.5 9.5z"/>
  </g>
</svg>
