<svg xmlns="http://www.w3.org/2000/svg" viewBox="0 0 582 1000" preserveAspectRatio="xMidYMid meet">
  <g transform="translate(0, 800) scale(1, -1)" fill="currentColor">
    <path d="M557 235q0 -112 -81.5 -180.5t-184.5 -68.5t-184.5 68t-81.5 181q0 42 20.5 81.5t40.5 57.5l21 19q-7 6 -17 16t-26.5 43.5t-16.5 69.5q0 98 74 162t172 64t170 -65t72 -166q0 -30 -14.5 -61t-29.5 -47l-15 -16q9 -7 22.5 -20.5t36 -54.5t22.5 -83zM341 560.5q-17 17.5 -50.5 17.5t-49.5 -17t-16 -37.5t17.5 -38.5t50 -18t49 18t16.5 38t-17 37.5zM292 155q44 0 66 24t22 51.5t-22.5 51.5t-66 24t-66.5 -23.5t-23 -51.5t23 -52t67 -24z"/>
  </g>
</svg>
