<svg xmlns="http://www.w3.org/2000/svg" viewBox="0 0 830 1000" preserveAspectRatio="xMidYMid meet">
  <g transform="translate(0, 800) scale(1, -1)" fill="currentColor">
    <path d="M713 199q46 -31 66 -45q36 -27 36 -51.5t-30 -68.5t-61 -44q-19 0 -58 27q-5 3 -28 19t-36 24q-93 -72 -209 -72q-155 0 -261.5 110t-106.5 262q0 83 30 155.5t80 121.5t115 77t134 28q148 0 257 -107t109 -271q0 -83 -37 -165zM259.5 220.5q57.5 -55.5 128.5 -55.5t128 54t57 145t-57.5 146t-128.5 55t-128 -55.5t-57 -144.5t57.5 -144.5z"/>
  </g>
</svg>
