<svg xmlns="http://www.w3.org/2000/svg" viewBox="0 0 679 1000" preserveAspectRatio="xMidYMid meet">
  <g transform="translate(0, 800) scale(1, -1)" fill="currentColor">
    <path d="M498 192l18 13q34 20 48 20q31 0 67 -56q22 -35 22 -56t-13.5 -35t-31.5 -25t-34.5 -21t-67.5 -26t-98.5 -16t-96 12.5t-100 42t-92.5 72t-67.5 109t-26.5 144.5t26 141.5t66.5 105t92.5 69.5q98 54 197 54q47 0 95.5 -14.5t73.5 -29.5l24 -14q18 -11 28 -18q26 -21 26 -47.5t-21 -55.5q-39 -54 -70 -54q-18 0 -51 22q-42 34 -112 34q-65 0 -128 -45q-30 -22 -50 -62t-20 -90.5t20 -90.5t51 -63q61 -44 127 -44q31 0 58.5 8t39.5 16z"/>
  </g>
</svg>
