<svg xmlns="http://www.w3.org/2000/svg" viewBox="0 0 870 1000" preserveAspectRatio="xMidYMid meet">
  <g transform="translate(0, 800) scale(1, -1)" fill="currentColor">
    <path d="M819 705q8 -15 9.5 -27t1.5 -35v-555q0 -69 -38 -81q-19 -6 -48 -6t-46 5t-26 12t-14 20q-5 17 -5 52v335q-25 -31 -73 -98.5t-61 -84.5t-18 -23.5t-24.5 -18t-42 -11.5t-41 10.5t-26.5 20.5l-8 11q-20 25 -79 106.5t-64 87.5v-337q0 -23 -1.5 -34.5t-9.5 -25.5q-15 -27 -78 -27q-61 0 -76 27q-8 14 -9.5 26t-1.5 36v555q0 23 1.5 34.5t9.5 26.5q15 26 78 26q27 0 46.5 -6.5t25.5 -13.5l6 -6l227 -298q170 225 227 297q17 27 80.5 27t77.5 -27z"/>
  </g>
</svg>
