<svg xmlns="http://www.w3.org/2000/svg" viewBox="0 0 999 1000" preserveAspectRatio="xMidYMid meet">
  <g transform="translate(0, 800) scale(1, -1)" fill="currentColor">
    <path d="M917 729q67 -24 67 -64q0 -13 -12 -49l-192 -555q-2 -7 -7 -17t-26.5 -26.5t-51 -16.5t-51 16.5t-28.5 32.5l-117 345q-111 -328 -113 -334t-9 -17t-16 -20q-23 -23 -55 -23t-52.5 15t-27.5 30l-7 15l-193 555q-11 33 -11 49q0 40 67 63q29 10 52.5 10t36 -16t22.5 -49l110 -334l109 329q14 42 51 58q16 7 41.5 7t47.5 -16.5t28 -32.5l115 -347l110 336q8 23 13 34t18.5 21.5t33.5 10.5t47 -10z"/>
  </g>
</svg>
