<svg xmlns="http://www.w3.org/2000/svg" viewBox="0 0 583 1000" preserveAspectRatio="xMidYMid meet">
  <g transform="translate(0, 800) scale(1, -1)" fill="currentColor">
    <path d="M51 103q-26 32 -26 57.5t43 67.5q25 24 53 24t78 -50q14 -17 40 -32.5t48 -15.5q93 0 93 76q0 23 -25.5 38.5t-63.5 22.5t-82 22.5t-82 36.5t-63.5 66.5t-25.5 109.5q0 88 65.5 153.5t178.5 65.5q60 0 109.5 -15.5t68.5 -31.5l25 -19q31 -29 31 -49t-24 -55q-34 -50 -70 -50q-21 0 -52 20q-3 2 -11.5 10t-15.5 13q-21 13 -53.5 13t-54 -15.5t-21.5 -43t25.5 -44.5t63.5 -23t83 -18.5t83 -30.5t63.5 -62.5t25.5 -109.5t-26 -114.5t-68 -76.5q-81 -53 -173 -53q-47 0 -89 11.5t-68 28.5q-53 32 -74 62z"/>
  </g>
</svg>
