<svg xmlns="http://www.w3.org/2000/svg" viewBox="0 0 714 1000" preserveAspectRatio="xMidYMid meet">
  <g transform="translate(0, 800) scale(1, -1)" fill="currentColor">
    <path d="M422 442h176q54 -2 66 -28q10 -19 10 -56v-220q0 -32 -28 -61q-84 -87 -252 -87q-149 0 -259 112.5t-110 271.5t112 265.5t264 106.5q118 0 223 -78q27 -20 27 -44.5t-23 -56.5q-39 -53 -71 -53q-19 0 -61 27.5t-100 27.5q-76 0 -135 -53.5t-59 -140t60 -147t136 -60.5q55 0 99 18v109h-79q-31 0 -44 8t-17 23.5t-4 42t4.5 42.5t16.5 22q18 9 48 9z"/>
  </g>
</svg>
